<?xml version="1.0" standalone="no"?>
<!DOCTYPE svg PUBLIC "-//W3C//DTD SVG 20010904//EN"
 "http://www.w3.org/TR/2001/REC-SVG-20010904/DTD/svg10.dtd">
<svg version="1.0" xmlns="http://www.w3.org/2000/svg"
 width="347.000000pt" height="241.000000pt" viewBox="0 0 347.000000 241.000000"
 preserveAspectRatio="xMidYMid meet">

<g transform="translate(0.000000,241.000000) scale(0.100000,-0.100000)"
fill="#000000" stroke="none">
<path d="M1395 1273 c-30 -8 -43 -21 -50 -54 -8 -36 -40 -59 -82 -59 -26 0
-36 5 -43 24 -11 31 -39 46 -83 46 -40 0 -52 -12 -62 -58 -4 -18 -16 -41 -27
-52 -15 -14 -21 -33 -22 -82 -1 -35 -7 -72 -13 -83 -19 -33 -29 -63 -32 -92 0
-6 -30 -35 -66 -63 -76 -61 -87 -77 -76 -116 12 -46 50 -59 137 -46 95 15 172
45 247 96 34 23 85 57 112 76 28 19 54 40 58 47 4 7 14 13 22 13 22 0 149 84
173 115 25 32 27 48 9 64 -8 6 -28 39 -46 74 -30 59 -112 159 -129 156 -4 -1
-16 -4 -27 -6z m30 -30 c-3 -10 -9 -31 -12 -48 -9 -47 -31 -65 -79 -65 -24 0
-46 5 -49 10 -4 6 9 10 31 10 43 0 74 23 74 56 0 33 10 54 27 54 10 0 13 -6 8
-17z m-253 -155 c-6 -6 -7 0 -4 19 5 21 7 23 10 9 2 -10 0 -22 -6 -28z m-87
21 c-5 -7 5 -8 29 -4 49 10 45 -2 -8 -25 -24 -10 -47 -24 -51 -30 -6 -9 -2 -9
13 -1 11 6 31 11 44 11 20 -1 19 -2 -8 -14 -18 -8 -35 -19 -38 -25 -12 -19
-22 -12 -21 13 0 13 9 33 19 45 20 22 9 30 -12 9 -7 -7 -12 -8 -12 -2 0 6 10
16 23 22 29 14 29 14 22 1z m461 -28 c-4 -5 -1 -11 6 -13 6 -2 -14 -26 -45
-53 -31 -26 -70 -66 -88 -87 l-31 -39 62 38 c35 21 80 54 101 74 33 30 39 33
39 17 0 -11 -12 -31 -27 -44 -30 -25 -141 -94 -153 -94 -4 0 -20 -11 -36 -25
-16 -14 -32 -25 -37 -25 -4 0 -32 -20 -63 -45 -91 -75 -236 -137 -314 -134
-14 0 7 8 45 18 122 30 227 88 293 160 19 20 31 29 26 21 -4 -9 -3 -12 2 -7 5
5 9 15 9 23 0 21 68 99 144 167 64 56 78 66 67 48z m-389 -35 c-4 -9 -14 -15
-24 -15 -17 1 -17 2 0 6 13 3 17 11 13 25 -3 15 -2 18 6 10 6 -6 8 -18 5 -26z
m223 24 c0 -5 -9 -14 -20 -20 -12 -6 -20 -21 -20 -35 0 -13 -6 -28 -13 -32 -7
-4 -24 -21 -37 -38 -24 -28 -29 -30 -102 -30 l-76 -1 19 24 c10 14 19 29 19
33 0 5 8 17 18 27 9 10 22 27 28 37 7 13 32 22 90 30 43 7 82 13 87 14 4 0 7
-3 7 -9z m-265 -88 c-17 -15 -18 -15 -6 0 7 9 9 23 5 30 -6 10 -4 11 7 0 11
-10 10 -15 -6 -30z m-40 2 c-32 -16 -35 -17 -35 -6 0 12 43 31 53 25 5 -3 -4
-11 -18 -19z m21 -43 c-4 -6 -15 -11 -24 -10 -11 0 -12 3 -4 6 6 2 12 12 12
21 0 12 3 13 11 5 6 -6 8 -16 5 -22z m-51 -1 c-10 -11 -20 -18 -23 -15 -7 6
18 35 31 35 5 0 2 -9 -8 -20z m5 -55 c-7 -8 -18 -15 -24 -15 -6 0 -3 5 7 11 9
5 17 18 18 27 0 11 2 12 6 4 3 -7 -1 -19 -7 -27z m-20 15 c-20 -13 -33 -13
-25 0 3 6 14 10 23 10 15 0 15 -2 2 -10z m71 -51 c-14 -5 -31 -18 -38 -29 -13
-18 -75 -42 -143 -55 l-35 -7 34 26 c19 14 39 23 44 19 6 -3 7 -1 4 4 -11 18
27 41 73 46 84 7 88 7 61 -4z m9 -22 c0 -2 -12 -14 -27 -28 l-28 -24 24 28
c23 25 31 32 31 24z"/>
<path d="M1509 1043 l-24 -28 28 24 c25 23 32 31 24 31 -2 0 -14 -12 -28 -27z"/>
<path d="M1275 1030 c-4 -6 -28 -24 -53 -41 l-47 -29 35 6 c70 11 78 14 83 36
7 25 -7 46 -18 28z"/>
<path d="M1690 965 c0 -72 17 -89 22 -22 l3 42 14 -42 c10 -30 20 -43 33 -43
16 0 18 9 18 65 0 74 -19 91 -21 18 l-1 -48 -21 48 c-30 68 -47 62 -47 -18z"/>
<path d="M1805 965 c0 -45 4 -65 13 -65 7 0 12 13 12 30 0 23 4 30 20 30 16 0
20 -7 20 -30 0 -16 5 -30 10 -30 6 0 10 28 10 65 0 37 -4 65 -10 65 -5 0 -10
-11 -10 -25 0 -18 -5 -25 -20 -25 -15 0 -20 7 -20 25 0 14 -6 25 -12 25 -9 0
-13 -20 -13 -65z"/>
<path d="M1920 964 l0 -65 36 3 c41 3 61 26 49 54 -4 11 -7 27 -6 38 3 23 -15
36 -51 36 -28 0 -28 -1 -28 -66z m60 31 c0 -8 -7 -15 -15 -15 -8 0 -15 7 -15
15 0 8 7 15 15 15 8 0 15 -7 15 -15z m4 -50 c3 -9 -1 -18 -10 -22 -17 -6 -27
1 -30 22 -3 20 32 19 40 0z"/>
<path d="M2079 1028 c0 -2 -1 -30 -2 -63 l-2 -60 33 -3 c18 -2 32 1 32 7 0 6
-9 11 -20 11 -18 0 -20 7 -20 55 0 30 -4 55 -10 55 -5 0 -10 -1 -11 -2z"/>
<path d="M2160 977 c0 -29 5 -58 12 -65 17 -17 44 -15 62 4 20 20 22 114 3
114 -9 0 -12 -13 -11 -44 2 -50 -8 -71 -30 -63 -12 5 -16 20 -16 57 0 27 -4
50 -10 50 -5 0 -10 -24 -10 -53z"/>
<path d="M2275 1013 c16 -39 16 -52 1 -82 -14 -26 -14 -31 -2 -31 7 0 17 12
21 27 6 27 7 27 20 9 8 -10 16 -24 18 -30 2 -6 7 -8 11 -4 4 3 0 20 -9 38 -15
29 -15 33 0 57 22 33 9 45 -14 14 l-19 -24 -6 21 c-4 12 -12 22 -18 22 -6 0
-7 -7 -3 -17z"/>
<path d="M2370 981 c0 -52 17 -81 49 -81 29 0 41 22 41 77 0 69 -18 69 -22 1
-3 -45 -6 -53 -23 -53 -17 0 -20 8 -23 53 -4 66 -22 69 -22 3z"/>
<path d="M2490 966 c0 -37 4 -66 10 -66 6 0 10 11 10 25 0 14 4 25 8 25 5 0
15 -11 22 -25 7 -14 19 -25 27 -25 11 0 10 5 -2 24 -14 20 -14 28 -3 45 18 29
0 55 -41 59 l-31 3 0 -65z m55 24 c0 -8 -8 -16 -17 -18 -13 -2 -18 3 -18 18 0
15 5 20 18 18 9 -2 17 -10 17 -18z"/>
<path d="M2580 1025 c0 -4 7 -19 15 -35 13 -25 21 -54 24 -82 2 -21 21 -5 21
17 0 14 7 42 15 62 18 42 18 43 6 43 -5 0 -14 -14 -21 -31 l-13 -31 -13 31
c-11 26 -34 43 -34 26z"/>
</g>
</svg>
