<?xml version="1.0" standalone="no"?>
<!DOCTYPE svg PUBLIC "-//W3C//DTD SVG 20010904//EN"
 "http://www.w3.org/TR/2001/REC-SVG-20010904/DTD/svg10.dtd">
<svg version="1.0" xmlns="http://www.w3.org/2000/svg"
 width="227.000000pt" height="83.000000pt" viewBox="0 0 227.000000 83.000000"
 preserveAspectRatio="xMidYMid meet">

<g transform="translate(0.000000,83.000000) scale(0.100000,-0.100000)"
fill="#000000" stroke="none">
<path d="M755 713 c-30 -8 -43 -21 -50 -54 -8 -36 -40 -59 -82 -59 -26 0 -36
5 -43 24 -11 31 -39 46 -83 46 -40 0 -52 -12 -62 -58 -4 -18 -16 -41 -27 -52
-15 -14 -21 -33 -22 -82 -1 -35 -7 -72 -13 -83 -19 -33 -29 -63 -32 -91 0 -7
-32 -37 -70 -68 -76 -61 -87 -79 -71 -120 15 -40 52 -50 136 -37 94 14 172 44
247 95 34 23 85 57 112 76 28 19 54 40 58 47 4 7 14 13 22 13 22 0 149 84 173
115 25 32 27 48 9 64 -8 6 -28 39 -46 74 -30 59 -112 159 -129 156 -4 -1 -16
-4 -27 -6z m30 -30 c-3 -10 -9 -31 -12 -48 -9 -47 -31 -65 -79 -65 -24 0 -46
5 -49 10 -4 6 9 10 31 10 43 0 74 23 74 56 0 33 10 54 27 54 10 0 13 -6 8 -17z
m-248 -145 c-3 -7 -5 -2 -5 12 0 14 2 19 5 13 2 -7 2 -19 0 -25z m-92 11 c-5
-7 5 -8 29 -4 49 10 45 -2 -9 -26 -24 -11 -47 -24 -51 -30 -4 -8 0 -8 14 0 11
6 31 11 44 11 20 -1 19 -2 -8 -14 -18 -8 -35 -19 -38 -25 -12 -19 -22 -12 -21
13 0 13 9 33 19 45 20 22 9 30 -12 9 -7 -7 -12 -8 -12 -2 0 6 10 16 23 22 29
14 29 14 22 1z m414 -102 c-36 -34 -76 -75 -90 -91 -23 -28 -22 -27 40 10 35
22 81 55 102 75 31 28 39 32 39 18 0 -10 -8 -25 -17 -35 -21 -21 -150 -104
-162 -104 -4 0 -21 -11 -37 -25 -16 -14 -32 -25 -37 -25 -4 0 -32 -20 -63 -45
-91 -74 -235 -136 -314 -134 -14 0 8 9 48 19 40 11 92 28 116 39 61 27 163 97
176 121 6 12 15 18 20 15 5 -3 12 0 16 6 4 8 3 9 -4 5 -7 -4 -12 -2 -12 5 0 6
50 61 110 122 88 87 113 107 123 98 9 -10 -2 -26 -54 -74z m-342 39 c-4 -9
-14 -15 -24 -15 -17 1 -17 2 0 6 13 3 17 11 13 25 -3 15 -2 18 6 10 6 -6 8
-18 5 -26z m223 24 c0 -5 -9 -14 -20 -20 -11 -6 -20 -20 -20 -32 0 -11 -17
-39 -38 -62 -38 -41 -38 -41 -114 -41 l-76 -1 19 24 c10 14 19 29 19 33 0 5 8
17 18 27 9 10 22 27 28 37 7 13 32 22 90 30 43 7 82 13 87 14 4 0 7 -3 7 -9z
m-305 -86 c-32 -16 -35 -17 -35 -6 0 12 43 31 53 25 5 -3 -4 -11 -18 -19z m45
1 c-7 -8 -16 -15 -21 -15 -5 0 -1 8 9 18 20 22 31 19 12 -3z m-75 -45 c-10
-11 -20 -18 -23 -15 -7 6 18 35 31 35 5 0 2 -9 -8 -20z m46 -3 c-10 -9 -11 -8
-5 6 3 10 9 15 12 12 3 -3 0 -11 -7 -18z m-61 -37 c-8 -5 -19 -10 -25 -10 -5
0 -3 5 5 10 8 5 20 10 25 10 6 0 3 -5 -5 -10z m20 -15 c-7 -8 -16 -15 -21 -15
-5 0 -1 8 9 18 20 22 31 19 12 -3z m51 -36 c-14 -5 -31 -18 -38 -29 -13 -18
-75 -42 -143 -55 l-35 -7 34 26 c19 14 39 23 44 19 6 -3 7 -1 4 4 -11 18 27
41 73 46 84 7 88 7 61 -4z m9 -22 c0 -2 -12 -14 -27 -28 l-28 -24 24 28 c23
25 31 32 31 24z"/>
<path d="M874 488 l-29 -33 33 29 c17 17 32 31 32 33 0 8 -8 1 -36 -29z"/>
<path d="M635 470 c-4 -6 -28 -24 -53 -41 l-47 -29 35 6 c73 11 78 14 82 39 6
27 -6 43 -17 25z"/>
<path d="M1050 405 c0 -37 4 -65 10 -65 6 0 10 19 11 43 l0 42 19 -42 c30 -66
50 -57 50 22 0 37 -4 65 -10 65 -5 0 -10 -21 -10 -47 0 -52 -11 -49 -30 10
-19 62 -40 48 -40 -28z"/>
<path d="M1165 405 c0 -45 4 -65 13 -65 7 0 12 13 12 30 0 23 4 30 20 30 16 0
20 -7 20 -30 0 -16 5 -30 10 -30 6 0 10 28 10 65 0 37 -4 65 -10 65 -5 0 -10
-11 -10 -25 0 -18 -5 -25 -20 -25 -15 0 -20 7 -20 25 0 14 -6 25 -12 25 -9 0
-13 -20 -13 -65z"/>
<path d="M1280 404 l0 -65 36 3 c41 3 61 26 49 54 -4 11 -7 27 -6 38 3 23 -15
36 -51 36 -28 0 -28 -1 -28 -66z m60 31 c0 -8 -7 -15 -15 -15 -8 0 -15 7 -15
15 0 8 7 15 15 15 8 0 15 -7 15 -15z m3 -49 c7 -18 -1 -26 -25 -26 -20 0 -21
1 -12 24 8 20 30 21 37 2z"/>
<path d="M1438 463 c-2 -5 -3 -33 -3 -63 2 -54 2 -55 33 -58 18 -2 32 1 32 7
0 6 -9 11 -20 11 -18 0 -20 7 -20 55 0 48 -11 71 -22 48z"/>
<path d="M1520 417 c0 -55 12 -77 41 -77 32 0 49 29 49 81 0 54 -20 69 -21 17
-1 -67 -9 -84 -34 -75 -11 5 -15 21 -15 57 0 27 -4 50 -10 50 -5 0 -10 -24
-10 -53z"/>
<path d="M1635 453 c16 -39 16 -52 1 -82 -14 -26 -14 -31 -2 -31 7 0 17 12 21
27 6 27 7 27 20 9 8 -10 16 -24 18 -30 2 -6 7 -8 11 -4 4 3 0 20 -9 38 -15 29
-15 33 0 57 22 33 9 45 -14 14 l-19 -24 -6 21 c-4 12 -12 22 -18 22 -6 0 -7
-7 -3 -17z"/>
<path d="M1730 415 c0 -50 3 -57 26 -67 41 -19 58 -1 62 66 2 32 -1 56 -7 56
-5 0 -11 -24 -13 -52 -3 -45 -6 -53 -23 -53 -17 0 -20 8 -23 53 -4 69 -22 67
-22 -3z"/>
<path d="M1850 406 c0 -37 4 -66 10 -66 6 0 10 11 10 25 0 14 4 25 8 25 5 0
15 -11 22 -25 7 -14 19 -25 27 -25 11 0 10 5 -2 24 -14 20 -14 28 -3 45 18 29
0 55 -41 59 l-31 3 0 -65z m55 24 c0 -8 -8 -16 -17 -18 -13 -2 -18 3 -18 18 0
15 5 20 18 18 9 -2 17 -10 17 -18z"/>
<path d="M1940 465 c0 -4 7 -19 15 -35 13 -25 21 -54 24 -82 2 -21 21 -5 21
17 0 14 7 42 15 62 18 42 18 43 6 43 -5 0 -14 -14 -21 -31 l-13 -31 -13 31
c-11 26 -34 43 -34 26z"/>
</g>
</svg>
